<svg width="131" height="60" viewBox="0 0 131 60" fill="none" xmlns="http://www.w3.org/2000/svg">
<path fill-rule="evenodd" clip-rule="evenodd" d="M14.9825 39.4508C25.5465 44.3815 37.9767 40.1184 42.7461 29.9289C47.5154 19.7393 42.8179 7.48197 32.2538 2.55127C21.6897 -2.37944 9.25957 1.88367 4.49023 12.0732C-0.279107 22.2627 4.41843 34.5201 14.9825 39.4508ZM15.4107 39.1217C24.8562 43.5304 36.2887 39.0384 40.9458 29.0886C45.6029 19.1388 41.7211 7.49904 32.2756 3.09041C22.8301 -1.31822 11.3977 3.17376 6.74058 13.1235C2.08346 23.0733 5.96521 34.7131 15.4107 39.1217Z" fill="#09B0C7"/>
<path d="M39.1626 6.79953L38.7661 26.5244L33.292 31.9231L33.72 12.1671L13.6809 12.0937L19.155 6.69508L39.1626 6.79953Z" fill="#1C4D88"/>
<path d="M32.4367 13.5227L32.0142 33.2213L26.54 38.6199L26.994 18.8903L6.9816 18.8439L12.4558 13.4452L32.4367 13.5227Z" fill="#09B0C7"/>
<path d="M25.3324 20.3718L24.7904 39.9496L19.3163 45.3482L19.8898 25.7394L0 25.817L5.47416 20.4183L25.3324 20.3718Z" fill="#7DD0B6"/>
<path d="M58.537 24.8801L54.9517 28.6127V35.3541H48.811V8.69302H54.9517V21.1476L66.7755 8.69302H73.6409L62.58 20.5762L74.2893 35.3541H67.0806L58.537 24.8801Z" fill="#1F4E86"/>
<path d="M88.6011 8.69302C90.9658 8.69302 93.0127 9.08659 94.7418 9.87372C96.4963 10.6609 97.8439 11.7781 98.7848 13.2254C99.7256 14.6727 100.196 16.3866 100.196 18.3672C100.196 20.3223 99.7256 22.0363 98.7848 23.509C97.8439 24.9563 96.4963 26.0735 94.7418 26.8606C93.0127 27.6224 90.9658 28.0033 88.6011 28.0033H83.2232V35.3541H77.0444V8.69302H88.6011ZM88.2578 22.9757C90.114 22.9757 91.5252 22.5822 92.4915 21.795C93.4577 20.9825 93.9408 19.8399 93.9408 18.3672C93.9408 16.8691 93.4577 15.7265 92.4915 14.9393C91.5252 14.1268 90.114 13.7205 88.2578 13.7205H83.2232V22.9757H88.2578Z" fill="#1F4E86"/>
<path d="M123.02 21.6046H128.665V32.4214C127.216 33.5132 125.538 34.3511 123.631 34.9352C121.724 35.5192 119.804 35.8112 117.871 35.8112C115.1 35.8112 112.608 35.2272 110.396 34.0591C108.184 32.8657 106.442 31.228 105.17 29.1459C103.924 27.0384 103.302 24.6643 103.302 22.0236C103.302 19.3828 103.924 17.0214 105.17 14.9393C106.442 12.8318 108.196 11.1941 110.434 10.0261C112.671 8.83267 115.189 8.23597 117.986 8.23597C120.325 8.23597 122.448 8.62954 124.355 9.41668C126.262 10.2038 127.864 11.3464 129.161 12.8445L125.194 16.5009C123.287 14.495 120.986 13.492 118.291 13.492C116.587 13.492 115.074 13.8475 113.752 14.5585C112.43 15.2694 111.4 16.2724 110.663 17.5674C109.925 18.8623 109.557 20.3477 109.557 22.0236C109.557 23.674 109.925 25.1467 110.663 26.4417C111.4 27.7367 112.417 28.7523 113.714 29.4887C115.036 30.1996 116.536 30.5551 118.215 30.5551C119.995 30.5551 121.596 30.1742 123.02 29.4125V21.6046Z" fill="#1F4E86"/>
<path d="M9.23139 51.8107L13.0455 56.9129H10.6707L7.36031 52.4575H4.84156V56.9129H2.7546V46.8521H4.84156V51.3795H7.21639L10.5267 46.8521H12.8296L9.23139 51.8107Z" fill="#525252"/>
<path d="M15.5699 54.5415C15.5699 55.4517 16.1216 55.9069 17.225 55.9069H19.24V53.1761H17.225C16.1216 53.1761 15.5699 53.6312 15.5699 54.5415ZM19.24 52.17C19.24 51.4801 19.0577 50.9723 18.6931 50.6465C18.3381 50.3207 17.8727 50.1578 17.297 50.1578C16.8652 50.1578 16.443 50.2249 16.0304 50.3591C15.6178 50.4836 15.2484 50.6561 14.9222 50.8765L14.4184 50.0141C14.6295 49.8704 14.8598 49.7458 15.1093 49.6404C15.3684 49.535 15.6322 49.4488 15.9009 49.3817C16.1696 49.3051 16.4334 49.2476 16.6925 49.2093C16.9612 49.1709 17.2106 49.1518 17.4409 49.1518C18.055 49.1518 18.5972 49.2236 19.0673 49.3673C19.5375 49.5111 19.9357 49.7171 20.2619 49.9854C20.5882 50.2537 20.8329 50.5746 20.996 50.9483C21.1687 51.3124 21.255 51.7197 21.255 52.17V56.9129H17.225C15.9201 56.9129 14.9558 56.7165 14.3321 56.3237C13.718 55.9308 13.4109 55.3367 13.4109 54.5415C13.4109 53.7462 13.718 53.1521 14.3321 52.7593C14.9558 52.3664 15.9201 52.17 17.225 52.17H19.24Z" fill="#525252"/>
<path d="M29.884 51.2358C29.884 52.1748 29.2843 52.7497 28.0849 52.9605C28.7758 53.0659 29.2939 53.2911 29.6393 53.636C29.9944 53.9714 30.1719 54.3929 30.1719 54.9008C30.1719 55.2266 30.0951 55.5284 29.9416 55.8063C29.7977 56.0841 29.5626 56.3285 29.2363 56.5393C28.9101 56.7405 28.4927 56.8986 27.9841 57.0135C27.4756 57.1381 26.8615 57.2004 26.1419 57.2004C25.3455 57.2004 24.621 57.095 23.9685 56.8842C23.3257 56.6638 22.8027 56.4099 22.3997 56.1225L22.9754 55.2601C23.3784 55.5092 23.8198 55.7296 24.2996 55.9212C24.7793 56.1033 25.3455 56.1943 25.9979 56.1943C26.756 56.1943 27.2789 56.0745 27.5668 55.835C27.8642 55.5859 28.0129 55.2266 28.0129 54.7571C28.0129 54.4313 27.893 54.1582 27.6531 53.9378C27.4132 53.7174 27.0774 53.6073 26.6456 53.6073H24.1269V52.6012H26.3578C26.7895 52.6012 27.1254 52.491 27.3653 52.2706C27.6051 52.0406 27.7251 51.7436 27.7251 51.3795C27.7251 51.0154 27.5955 50.7232 27.3365 50.5028C27.087 50.2728 26.6888 50.1578 26.1419 50.1578C25.5278 50.1578 24.9808 50.2537 24.5011 50.4453C24.0309 50.6273 23.5943 50.8429 23.1913 51.0921L22.6156 50.2297C23.0186 49.9422 23.5416 49.6931 24.1844 49.4823C24.8273 49.2619 25.5278 49.1518 26.2858 49.1518C26.8999 49.1518 27.4324 49.2093 27.8834 49.3242C28.3344 49.4392 28.7086 49.5973 29.006 49.7985C29.3035 49.9902 29.5242 50.2105 29.6681 50.4597C29.812 50.7088 29.884 50.9675 29.884 51.2358Z" fill="#525252"/>
<path d="M41.8964 46.8521V56.9129H39.8095V47.9301H33.9084V56.9129H31.8214V46.8521H41.8964Z" fill="#525252"/>
<path d="M45.9242 50.4453V55.9069H47.7233C48.0495 55.9069 48.347 55.859 48.6156 55.7631C48.8939 55.6577 49.129 55.4949 49.3209 55.2745C49.5224 55.0541 49.6759 54.7714 49.7815 54.4265C49.8966 54.0816 49.9542 53.6647 49.9542 53.1761C49.9542 52.6874 49.8966 52.2706 49.7815 51.9257C49.6759 51.5807 49.5224 51.2981 49.3209 51.0777C49.129 50.8573 48.8939 50.6992 48.6156 50.6034C48.347 50.498 48.0495 50.4453 47.7233 50.4453H45.9242ZM47.7233 49.4392C48.3853 49.4392 48.9851 49.5254 49.5224 49.6979C50.0693 49.8704 50.5347 50.1195 50.9185 50.4453C51.3023 50.7711 51.595 51.1639 51.7965 51.6238C52.0075 52.0838 52.1131 52.6012 52.1131 53.1761C52.1131 53.751 52.0075 54.2684 51.7965 54.7283C51.595 55.1882 51.3023 55.5811 50.9185 55.9069C50.5347 56.2326 50.0693 56.4818 49.5224 56.6542C48.9851 56.8267 48.3853 56.9129 47.7233 56.9129H45.9242V59.5H43.9092V49.4392H47.7233Z" fill="#525252"/>
<path d="M57.7921 56.2662C58.0991 56.2662 58.387 56.2087 58.6557 56.0937C58.9243 55.9787 59.1594 55.8015 59.3609 55.5619C59.5624 55.3128 59.7207 54.9918 59.8359 54.599C59.9606 54.2061 60.023 53.7318 60.023 53.1761C60.023 52.6203 59.9606 52.146 59.8359 51.7532C59.7207 51.3603 59.5624 51.0441 59.3609 50.8046C59.1594 50.5555 58.9243 50.3734 58.6557 50.2584C58.387 50.1435 58.0991 50.086 57.7921 50.086C57.485 50.086 57.1972 50.1435 56.9285 50.2584C56.6599 50.3734 56.4248 50.5555 56.2233 50.8046C56.0218 51.0441 55.8587 51.3603 55.7339 51.7532C55.6188 52.146 55.5612 52.6203 55.5612 53.1761C55.5612 53.7318 55.6188 54.2061 55.7339 54.599C55.8587 54.9918 56.0218 55.3128 56.2233 55.5619C56.4248 55.8015 56.6599 55.9787 56.9285 56.0937C57.1972 56.2087 57.485 56.2662 57.7921 56.2662ZM57.7921 49.1518C58.435 49.1518 59.0251 49.2428 59.5624 49.4248C60.1093 49.5973 60.5747 49.856 60.9585 50.201C61.3423 50.5363 61.6398 50.9579 61.8509 51.4657C62.0716 51.964 62.1819 52.5341 62.1819 53.1761C62.1819 53.8276 62.0716 54.4025 61.8509 54.9008C61.6398 55.399 61.3423 55.8206 60.9585 56.1656C60.5747 56.5009 60.1093 56.7548 59.5624 56.9273C59.0251 57.1094 58.435 57.2004 57.7921 57.2004C57.1396 57.2004 56.5447 57.1094 56.0074 56.9273C55.47 56.7548 55.0095 56.5009 54.6257 56.1656C54.2419 55.8206 53.9396 55.399 53.7189 54.9008C53.5078 54.4025 53.4023 53.8276 53.4023 53.1761C53.4023 52.5341 53.5078 51.964 53.7189 51.4657C53.9396 50.9579 54.2419 50.5363 54.6257 50.201C55.0095 49.856 55.47 49.5973 56.0074 49.4248C56.5447 49.2428 57.1396 49.1518 57.7921 49.1518Z" fill="#525252"/>
<path d="M67.9419 59.5V56.9129H67.726C67.0927 56.9129 66.517 56.8267 65.9988 56.6542C65.4807 56.4818 65.0345 56.2326 64.6603 55.9069C64.2861 55.5811 63.9934 55.1882 63.7823 54.7283C63.5808 54.2684 63.4801 53.751 63.4801 53.1761C63.4801 52.6012 63.5808 52.0838 63.7823 51.6238C63.9934 51.1639 64.2861 50.7711 64.6603 50.4453C65.0345 50.1195 65.4807 49.8704 65.9988 49.6979C66.517 49.5254 67.0927 49.4392 67.726 49.4392H67.9419V46.8521H69.9569V49.4392H70.1728C70.806 49.4392 71.3818 49.5254 71.8999 49.6979C72.418 49.8704 72.8642 50.1195 73.2384 50.4453C73.6126 50.7711 73.9005 51.1639 74.102 51.6238C74.3131 52.0838 74.4187 52.6012 74.4187 53.1761C74.4187 53.751 74.3131 54.2684 74.102 54.7283C73.9005 55.1882 73.6126 55.5811 73.2384 55.9069C72.8642 56.2326 72.418 56.4818 71.8999 56.6542C71.3818 56.8267 70.806 56.9129 70.1728 56.9129H69.9569V59.5H67.9419ZM67.9419 55.9069V50.4453H67.726C67.4381 50.4453 67.1647 50.498 66.9056 50.6034C66.6561 50.6992 66.4354 50.8573 66.2435 51.0777C66.0612 51.2981 65.9125 51.5807 65.7973 51.9257C65.6918 52.2706 65.639 52.6874 65.639 53.1761C65.639 53.6647 65.6918 54.0816 65.7973 54.4265C65.9125 54.7714 66.0612 55.0541 66.2435 55.2745C66.4354 55.4949 66.6561 55.6577 66.9056 55.7631C67.1647 55.859 67.4381 55.9069 67.726 55.9069H67.9419ZM69.9569 50.4453V55.9069H70.1728C70.4606 55.9069 70.7293 55.859 70.9788 55.7631C71.2378 55.6577 71.4585 55.4949 71.6408 55.2745C71.8327 55.0541 71.9815 54.7714 72.087 54.4265C72.2021 54.0816 72.2597 53.6647 72.2597 53.1761C72.2597 52.6874 72.2021 52.2706 72.087 51.9257C71.9815 51.5807 71.8327 51.2981 71.6408 51.0777C71.4585 50.8573 71.2378 50.6992 70.9788 50.6034C70.7293 50.498 70.4606 50.4453 70.1728 50.4453H69.9569Z" fill="#525252"/>
<path d="M84.1282 49.4392V56.9129H82.1132V51.3076H81.9693L78.6589 56.9129H76.0682V49.4392H78.0832V55.0445H78.2271L81.5375 49.4392H84.1282Z" fill="#525252"/>
<path d="M88.233 47.9301V56.9129H86.146V46.8521H94.4939V47.9301H88.233Z" fill="#525252"/>
<path d="M96.2289 50.4453V55.9069H98.028C98.3542 55.9069 98.6517 55.859 98.9203 55.7631C99.1986 55.6577 99.4337 55.4949 99.6256 55.2745C99.8271 55.0541 99.9806 54.7714 100.086 54.4265C100.201 54.0816 100.259 53.6647 100.259 53.1761C100.259 52.6874 100.201 52.2706 100.086 51.9257C99.9806 51.5807 99.8271 51.2981 99.6256 51.0777C99.4337 50.8573 99.1986 50.6992 98.9203 50.6034C98.6517 50.498 98.3542 50.4453 98.028 50.4453H96.2289ZM98.028 49.4392C98.6901 49.4392 99.2898 49.5254 99.8271 49.6979C100.374 49.8704 100.839 50.1195 101.223 50.4453C101.607 50.7711 101.9 51.1639 102.101 51.6238C102.312 52.0838 102.418 52.6012 102.418 53.1761C102.418 53.751 102.312 54.2684 102.101 54.7283C101.9 55.1882 101.607 55.5811 101.223 55.9069C100.839 56.2326 100.374 56.4818 99.8271 56.6542C99.2898 56.8267 98.6901 56.9129 98.028 56.9129H96.2289V59.5H94.2139V49.4392H98.028Z" fill="#525252"/>
<path d="M108.176 59.5H106.161L107.168 56.9129H105.945L102.922 49.4392H104.937L107.456 55.6913H107.6L109.975 49.4392H111.99L108.176 59.5Z" fill="#525252"/>
<path d="M121.063 49.4392V56.9129H119.048V50.4453H115.162V56.9129H113.147V49.4392H121.063Z" fill="#525252"/>
<path d="M131 49.4392V56.9129H128.985V50.4453H125.099V56.9129H123.084V49.4392H131Z" fill="#525252"/>
</svg>
