<svg width="24" height="24" viewBox="0 0 24 24" fill="none" xmlns="http://www.w3.org/2000/svg">
<path d="M18 19.75H6C5.00544 19.75 4.05161 19.3549 3.34835 18.6517C2.64509 17.9484 2.25 16.9946 2.25 16V8C2.25 7.00544 2.64509 6.05161 3.34835 5.34835C4.05161 4.64509 5.00544 4.25 6 4.25H18C18.9946 4.25 19.9484 4.64509 20.6517 5.34835C21.3549 6.05161 21.75 7.00544 21.75 8V16C21.75 16.9946 21.3549 17.9484 20.6517 18.6517C19.9484 19.3549 18.9946 19.75 18 19.75ZM6 5.75C5.40326 5.75 4.83097 5.98705 4.40901 6.40901C3.98705 6.83097 3.75 7.40326 3.75 8V16C3.75 16.5967 3.98705 17.169 4.40901 17.591C4.83097 18.0129 5.40326 18.25 6 18.25H18C18.5967 18.25 19.169 18.0129 19.591 17.591C20.0129 17.169 20.25 16.5967 20.25 16V8C20.25 7.40326 20.0129 6.83097 19.591 6.40901C19.169 5.98705 18.5967 5.75 18 5.75H6Z" fill="#9AC3F4"/>
<path d="M12 12.8298C11.9207 12.8442 11.8393 12.8442 11.76 12.8298L3.76 7.74977C3.57868 7.68076 3.43115 7.54416 3.34841 7.36867C3.26567 7.19318 3.25416 6.99246 3.31629 6.80866C3.37842 6.62486 3.50936 6.47229 3.6816 6.38299C3.85384 6.29369 4.05399 6.27462 4.24 6.32977L12.01 11.3298L19.77 6.48977C19.9596 6.43022 20.1651 6.44837 20.3414 6.54025C20.5177 6.63213 20.6502 6.79021 20.71 6.97977C20.7411 7.07297 20.7533 7.17143 20.7459 7.2694C20.7385 7.36737 20.7117 7.46289 20.667 7.55039C20.6224 7.63789 20.5607 7.71562 20.4857 7.77904C20.4106 7.84245 20.3237 7.8903 20.23 7.91977L12.23 12.8398C12.1532 12.8469 12.0759 12.8435 12 12.8298Z" fill="#9AC3F4"/>
</svg>
