<svg width="24" height="24" viewBox="0 0 24 24" fill="none" xmlns="http://www.w3.org/2000/svg">
<path d="M3.99999 20.7501C3.89784 20.757 3.79537 20.7427 3.69905 20.708C3.60273 20.6733 3.51466 20.619 3.4404 20.5485C3.36615 20.478 3.30734 20.3928 3.26768 20.2985C3.22802 20.2041 3.20837 20.1025 3.20999 20.0001V6.0001C3.20993 5.84859 3.25576 5.70062 3.34145 5.57567C3.42713 5.45072 3.54864 5.35464 3.68999 5.3001L8.79999 3.3001C8.97318 3.23004 9.16681 3.23004 9.33999 3.3001L14.11 5.1601L19.81 3.2901C19.9214 3.25139 20.0406 3.24026 20.1573 3.25768C20.274 3.27509 20.3847 3.32053 20.48 3.3901C20.5769 3.45932 20.6558 3.55092 20.7097 3.65712C20.7637 3.76332 20.7912 3.88098 20.79 4.0001V18.0001C20.7899 18.1569 20.7406 18.3097 20.6491 18.4371C20.5577 18.5644 20.4286 18.6599 20.28 18.7101L14.28 20.7101C14.1119 20.7704 13.9281 20.7704 13.76 20.7101L9.05999 18.8501L4.22999 20.7001C4.15598 20.7272 4.07859 20.7441 3.99999 20.7501ZM9.09999 17.2901C9.19656 17.2897 9.29207 17.3102 9.37999 17.3501L14 19.2001L19.27 17.4201V5.0001L14.27 6.6301C14.1044 6.68502 13.9256 6.68502 13.76 6.6301L9.05999 4.8001L4.70999 6.4701V18.9101L8.79999 17.3401C8.88301 17.3081 8.97105 17.2912 9.05999 17.2901H9.09999Z" fill="#9AC3F4"/>
<path d="M9.06 18.79C8.95805 18.7901 8.85714 18.7695 8.76343 18.7293C8.66973 18.6892 8.5852 18.6303 8.51501 18.5564C8.44481 18.4824 8.39043 18.395 8.35518 18.2993C8.31993 18.2036 8.30456 18.1018 8.31 18V4C8.31 3.80109 8.38901 3.61032 8.52967 3.46967C8.67032 3.32902 8.86108 3.25 9.06 3.25C9.25891 3.25 9.44967 3.32902 9.59033 3.46967C9.73098 3.61032 9.81 3.80109 9.81 4V18C9.81693 18.1021 9.80259 18.2046 9.76788 18.3009C9.73317 18.3973 9.67886 18.4853 9.60836 18.5596C9.53787 18.6338 9.45274 18.6927 9.35835 18.7323C9.26396 18.772 9.16237 18.7916 9.06 18.79Z" fill="#9AC3F4"/>
<path d="M14.09 20.75C13.8911 20.75 13.7003 20.671 13.5597 20.5303C13.419 20.3897 13.34 20.1989 13.34 20V6C13.34 5.80109 13.419 5.61032 13.5597 5.46967C13.7003 5.32902 13.8911 5.25 14.09 5.25C14.2889 5.25 14.4797 5.32902 14.6203 5.46967C14.761 5.61032 14.84 5.80109 14.84 6V20C14.8374 20.1981 14.7576 20.3874 14.6175 20.5275C14.4774 20.6676 14.2881 20.7474 14.09 20.75Z" fill="#9AC3F4"/>
</svg>
