<svg width="12" height="22" viewBox="0 0 12 22" fill="none" xmlns="http://www.w3.org/2000/svg">
<path d="M6.21001 21.2704H5.79001C4.34458 21.2704 2.95835 20.6962 1.93628 19.6741C0.914205 18.652 0.34001 17.2658 0.34001 15.8204V6.93035C0.338695 6.462 0.429806 5.998 0.608124 5.56493C0.786441 5.13185 1.04846 4.73822 1.37917 4.40658C1.70988 4.07495 2.10277 3.81183 2.53534 3.63229C2.96792 3.45276 3.43166 3.36035 3.90001 3.36035H8.10001C8.56836 3.36035 9.0321 3.45276 9.46468 3.63229C9.89725 3.81183 10.2901 4.07495 10.6209 4.40658C10.9516 4.73822 11.2136 5.13185 11.3919 5.56493C11.5702 5.998 11.6613 6.462 11.66 6.93035V15.8204C11.66 17.2658 11.0858 18.652 10.0637 19.6741C9.04167 20.6962 7.65544 21.2704 6.21001 21.2704ZM3.90001 4.86035C3.35275 4.863 2.8288 5.08225 2.44276 5.47016C2.05672 5.85808 1.84 6.38308 1.84001 6.93035V15.8204C1.85298 16.8639 2.2733 17.8611 3.01127 18.5991C3.74925 19.3371 4.74643 19.7574 5.79001 19.7704H6.21001C7.25359 19.7574 8.25077 19.3371 8.98875 18.5991C9.72672 17.8611 10.147 16.8639 10.16 15.8204V6.93035C10.16 6.38308 9.9433 5.85808 9.55726 5.47016C9.17122 5.08225 8.64727 4.863 8.10001 4.86035H3.90001Z" fill="#9AC3F4"/>
<path d="M10.91 13.0702H1.09C0.891084 13.0702 0.700318 12.9912 0.559666 12.8505C0.419014 12.7099 0.339996 12.5191 0.339996 12.3202V1.47021C0.339996 1.2713 0.419014 1.08054 0.559666 0.939885C0.700318 0.799232 0.891084 0.720215 1.09 0.720215C1.28891 0.720215 1.47967 0.799232 1.62033 0.939885C1.76098 1.08054 1.84 1.2713 1.84 1.47021V11.5702H10.91C11.1089 11.5702 11.2997 11.6492 11.4403 11.7899C11.581 11.9305 11.66 12.1213 11.66 12.3202C11.66 12.5191 11.581 12.7099 11.4403 12.8505C11.2997 12.9912 11.1089 13.0702 10.91 13.0702Z" fill="#9AC3F4"/>
<path d="M7.63 17H4.37C4.17108 17 3.98032 16.921 3.83967 16.7803C3.69901 16.6397 3.62 16.4489 3.62 16.25C3.62 16.0511 3.69901 15.8603 3.83967 15.7197C3.98032 15.579 4.17108 15.5 4.37 15.5H7.63C7.82891 15.5 8.01967 15.579 8.16033 15.7197C8.30098 15.8603 8.38 16.0511 8.38 16.25C8.38 16.4489 8.30098 16.6397 8.16033 16.7803C8.01967 16.921 7.82891 17 7.63 17Z" fill="#9AC3F4"/>
</svg>
