<svg width="20" height="20" viewBox="0 0 20 20" fill="none" xmlns="http://www.w3.org/2000/svg">
<path fill-rule="evenodd" clip-rule="evenodd" d="M1.6975 9.41107C6.8654 7.1595 10.3115 5.67513 12.0357 4.95795C16.9588 2.91027 17.9818 2.55456 18.6486 2.54282C18.7952 2.54024 19.1231 2.57658 19.3355 2.74892C19.5148 2.89445 19.5642 3.09103 19.5878 3.229C19.6114 3.36698 19.6408 3.68128 19.6174 3.92687C19.3507 6.72999 18.1963 13.5324 17.609 16.672C17.3605 18.0004 16.8712 18.4459 16.3975 18.4894C15.368 18.5842 14.5863 17.8091 13.5892 17.1555C12.029 16.1327 11.1475 15.4961 9.63306 14.4981C7.88281 13.3447 9.01742 12.7107 10.0149 11.6747C10.2759 11.4036 14.8118 7.27791 14.8996 6.90365C14.9105 6.85684 14.9207 6.68236 14.8171 6.59023C14.7134 6.4981 14.5604 6.5296 14.45 6.55466C14.2936 6.59018 11.801 8.23763 6.97251 11.497C6.26502 11.9828 5.6242 12.2195 5.05004 12.2071C4.41708 12.1935 3.19952 11.8493 2.29439 11.555C1.1842 11.1942 0.301855 11.0034 0.378687 10.3905C0.418707 10.0713 0.85831 9.74479 1.6975 9.41107Z" fill="white"/>
</svg>
