<svg width="24" height="24" viewBox="0 0 24 24" fill="none" xmlns="http://www.w3.org/2000/svg">
<path fill-rule="evenodd" clip-rule="evenodd" d="M3.32347 11.3684C8.49138 9.11681 11.9375 7.63243 13.6617 6.91526C18.5848 4.86757 19.6078 4.51187 20.2745 4.50013C20.4212 4.49754 20.7491 4.53389 20.9615 4.70623C21.1408 4.85175 21.1902 5.04834 21.2138 5.18631C21.2374 5.32428 21.2668 5.63859 21.2434 5.88418C20.9766 8.6873 19.8223 15.4897 19.235 18.6293C18.9865 19.9577 18.4972 20.4032 18.0235 20.4468C16.994 20.5415 16.2123 19.7664 15.2152 19.1128C13.655 18.0901 12.7735 17.4534 11.259 16.4554C9.50879 15.302 10.6434 14.668 11.6409 13.632C11.9019 13.3609 16.4377 9.23522 16.5255 8.86095C16.5365 8.81414 16.5467 8.63967 16.4431 8.54753C16.3394 8.4554 16.1864 8.48691 16.076 8.51196C15.9195 8.54748 13.427 10.1949 8.59849 13.4543C7.891 13.9401 7.25017 14.1769 6.67602 14.1644C6.04306 14.1508 4.82549 13.8066 3.92036 13.5123C2.81018 13.1515 1.92783 12.9607 2.00466 12.3478C2.04468 12.0286 2.48429 11.7021 3.32347 11.3684Z" fill="#9AC3F4"/>
</svg>
