<svg width="20" height="21" viewBox="0 0 20 21" fill="none" xmlns="http://www.w3.org/2000/svg">
<g clip-path="url(#clip0_57_224)">
<path d="M0 20.5L1.41356 15.3669C0.539637 13.8603 0.0811843 12.154 0.0859598 10.4097C0.0859598 4.94392 4.55587 0.5 10.043 0.5C12.7077 0.5 15.2101 1.53137 17.0869 3.40399C18.9685 5.27662 20.0048 7.76711 20 10.4145C20 15.8802 15.5301 20.3242 10.0382 20.3242H10.0334C8.36676 20.3242 6.72874 19.9059 5.2722 19.1169L0 20.5ZM5.52531 17.3251L5.82617 17.5057C7.09646 18.2567 8.553 18.6511 10.0382 18.6559H10.043C14.6036 18.6559 18.319 14.9629 18.319 10.4192C18.319 8.21863 17.4594 6.15114 15.8978 4.59221C14.3362 3.03327 12.254 2.17776 10.043 2.17776C5.48233 2.173 1.76695 5.86597 1.76695 10.4097C1.76695 11.9639 2.20153 13.48 3.03247 14.7918L3.22827 15.1055L2.39255 18.1426L5.52531 17.3251Z" fill="white"/>
<path d="M0 20.5L1.41356 15.3669C0.539637 13.8603 0.0811843 12.154 0.0859598 10.4097C0.0859598 4.94392 4.55587 0.5 10.043 0.5C12.7077 0.5 15.2101 1.53137 17.0869 3.40399C18.9685 5.27662 20.0048 7.76711 20 10.4145C20 15.8802 15.5301 20.3242 10.0382 20.3242H10.0334C8.36676 20.3242 6.72874 19.9059 5.2722 19.1169L0 20.5ZM5.52531 17.3251L5.82617 17.5057C7.09646 18.2567 8.553 18.6511 10.0382 18.6559H10.043C14.6036 18.6559 18.319 14.9629 18.319 10.4192C18.319 8.21863 17.4594 6.15114 15.8978 4.59221C14.3362 3.03327 12.254 2.17776 10.043 2.17776C5.48233 2.173 1.76695 5.86597 1.76695 10.4097C1.76695 11.9639 2.20153 13.48 3.03247 14.7918L3.22827 15.1055L2.39255 18.1426L5.52531 17.3251Z" fill="#9AC3F4"/>
<path fill-rule="evenodd" clip-rule="evenodd" d="M7.55484 6.26503C7.36859 5.85153 7.1728 5.84203 6.9961 5.83727C6.85283 5.83252 6.68569 5.83252 6.51855 5.83252C6.3514 5.83252 6.08397 5.89431 5.85474 6.14145C5.62552 6.3886 4.9856 6.98746 4.9856 8.20895C4.9856 9.42568 5.87862 10.6044 6.00279 10.7707C6.12695 10.9371 7.72676 13.5179 10.253 14.5112C12.3543 15.3382 12.7841 15.1719 13.2377 15.1291C13.6914 15.0863 14.7086 14.5302 14.9187 13.9504C15.1241 13.3705 15.1241 12.8762 15.062 12.7717C14.9999 12.6671 14.8328 12.6053 14.5844 12.4818C14.3361 12.3582 13.1136 11.7593 12.8843 11.6738C12.6551 11.593 12.488 11.5502 12.3256 11.7973C12.1585 12.0445 11.6809 12.6006 11.5376 12.7669C11.3944 12.9333 11.2463 12.9523 10.998 12.8287C10.7497 12.7051 9.94739 12.4437 8.99705 11.5977C8.25684 10.9418 7.75541 10.1291 7.61215 9.88195C7.46888 9.6348 7.59782 9.50172 7.72198 9.37815C7.83182 9.26883 7.97031 9.08822 8.09448 8.94564C8.21864 8.80305 8.26162 8.69849 8.3428 8.53214C8.42399 8.36579 8.38578 8.2232 8.3237 8.09963C8.26162 7.98081 7.77451 6.75457 7.55484 6.26503Z" fill="#9AC3F4"/>
</g>
<defs>
<clipPath id="clip0_57_224">
<rect width="20" height="20" fill="white" transform="translate(0 0.5)"/>
</clipPath>
</defs>
</svg>
