<svg width="20" height="20" viewBox="0 0 20 20" fill="none" xmlns="http://www.w3.org/2000/svg">
<g clip-path="url(#clip0_401_626)">
<path d="M0 20L1.41356 14.8669C0.539637 13.3603 0.0811843 11.654 0.0859598 9.9097C0.0859598 4.44392 4.55587 0 10.043 0C12.7077 0 15.2101 1.03137 17.0869 2.90399C18.9685 4.77662 20.0048 7.26711 20 9.91445C20 15.3802 15.5301 19.8241 10.0382 19.8241H10.0334C8.36676 19.8241 6.72874 19.4059 5.2722 18.6169L0 20ZM5.52531 16.8251L5.82617 17.0057C7.09646 17.7567 8.553 18.1511 10.0382 18.1559H10.043C14.6036 18.1559 18.319 14.4629 18.319 9.9192C18.319 7.71863 17.4594 5.65114 15.8978 4.09221C14.3362 2.53327 12.254 1.67776 10.043 1.67776C5.48233 1.673 1.76695 5.36597 1.76695 9.9097C1.76695 11.4639 2.20153 12.98 3.03247 14.2918L3.22827 14.6055L2.39255 17.6426L5.52531 16.8251Z" fill="white"/>
<path d="M0 20L1.41356 14.8669C0.539637 13.3603 0.0811843 11.654 0.0859598 9.9097C0.0859598 4.44392 4.55587 0 10.043 0C12.7077 0 15.2101 1.03137 17.0869 2.90399C18.9685 4.77662 20.0048 7.26711 20 9.91445C20 15.3802 15.5301 19.8241 10.0382 19.8241H10.0334C8.36676 19.8241 6.72874 19.4059 5.2722 18.6169L0 20ZM5.52531 16.8251L5.82617 17.0057C7.09646 17.7567 8.553 18.1511 10.0382 18.1559H10.043C14.6036 18.1559 18.319 14.4629 18.319 9.9192C18.319 7.71863 17.4594 5.65114 15.8978 4.09221C14.3362 2.53327 12.254 1.67776 10.043 1.67776C5.48233 1.673 1.76695 5.36597 1.76695 9.9097C1.76695 11.4639 2.20153 12.98 3.03247 14.2918L3.22827 14.6055L2.39255 17.6426L5.52531 16.8251Z" fill="white"/>
<path fill-rule="evenodd" clip-rule="evenodd" d="M7.55484 5.76521C7.36859 5.35171 7.1728 5.34221 6.9961 5.33746C6.85283 5.3327 6.68569 5.3327 6.51855 5.3327C6.3514 5.3327 6.08397 5.39449 5.85474 5.64164C5.62552 5.88879 4.9856 6.48765 4.9856 7.70913C4.9856 8.92586 5.87862 10.1046 6.00279 10.2709C6.12695 10.4373 7.72676 13.0181 10.253 14.0114C12.3543 14.8384 12.7841 14.6721 13.2377 14.6293C13.6914 14.5865 14.7086 14.0304 14.9187 13.4506C15.1241 12.8707 15.1241 12.3764 15.062 12.2719C14.9999 12.1673 14.8328 12.1055 14.5844 11.9819C14.3361 11.8584 13.1136 11.2595 12.8843 11.174C12.6551 11.0932 12.488 11.0504 12.3256 11.2975C12.1585 11.5447 11.6809 12.1008 11.5376 12.2671C11.3944 12.4335 11.2463 12.4525 10.998 12.3289C10.7497 12.2053 9.94739 11.9439 8.99705 11.0979C8.25684 10.442 7.75541 9.62928 7.61215 9.38213C7.46888 9.13498 7.59782 9.0019 7.72198 8.87833C7.83182 8.76902 7.97031 8.58841 8.09448 8.44582C8.21864 8.30324 8.26162 8.19867 8.3428 8.03232C8.42399 7.86597 8.38578 7.72339 8.3237 7.59981C8.26162 7.48099 7.77451 6.25476 7.55484 5.76521Z" fill="white"/>
</g>
<defs>
<clipPath id="clip0_401_626">
<rect width="20" height="20" fill="white"/>
</clipPath>
</defs>
</svg>
